<?xml version="1.0" encoding="UTF-8"?>
<svg width="83px" height="32px" viewBox="0 0 83 32" version="1.1" xmlns="http://www.w3.org/2000/svg" xmlns:xlink="http://www.w3.org/1999/xlink">
    <!-- Generator: Sketch 57 (83077) - https://sketch.com -->
    <title>LOGO_Tune</title>
    <desc>Created with Sketch.</desc>
    <g id="Symbols" stroke="none" stroke-width="1" fill="none" fill-rule="evenodd">
        <g id="Header/home/Light" transform="translate(-70.000000, -59.000000)" fill="#000000" fill-rule="nonzero">
            <g id="LOGO_Tune" transform="translate(70.000000, 59.000000)">
                <path d="M53.9067633,31.0193171 L50.2121573,31.0193171 L50.2121573,29.9791942 C50.2107839,25.6360968 50.2437469,21.2944603 50.1846881,16.9528238 C50.1695801,15.8002157 50.0006446,14.605243 49.6655204,13.5110688 C48.7865064,10.6361224 46.6205608,9.51419209 44.5713592,9.5770085 C42.0812772,9.65589422 40.0375694,11.4541966 39.6241581,14.1553022 C39.2821667,16.3889369 39.2835402,18.6956139 39.289034,20.9701523 C39.2972748,24.3081871 38.610545,27.3555135 36.2124848,29.6651122 C33.7333904,32.0535966 30.7433691,32.3895914 27.592653,31.6533246 C23.6233551,30.7271478 21.4244465,27.1042478 21.1923318,23.5763029 C20.9409887,19.7371977 21.0371309,15.873258 21,12.0195443 C20.9973006,11.7960347 21.1140446,11.5111696 21.2664986,11.3533982 C22.3446643,10.2416938 23.4475523,9.15482379 24.6864128,7.91748659 C24.7097616,8.37180993 24.7358573,8.65959674 24.7358573,8.94738355 C24.7386042,12.774802 24.6905331,16.6051422 24.7660734,20.429639 C24.7921691,21.7823831 24.965225,23.1774918 25.3456733,24.4630369 C26.0447642,26.8296086 28.2986112,28.5592512 30.187118,28.4248533 C32.629129,28.2480908 34.5698272,26.540361 35.152174,23.9122977 C35.3774214,22.89847 35.406264,21.8305911 35.4666963,20.7817031 C35.6081626,18.2807334 35.4612024,15.7257125 35.8910952,13.2846376 C36.6725937,8.8553502 40.0375694,6.10895831 44.2898,6.00377734 C49.8523109,5.86645775 53.6787691,9.48205346 53.8930287,15.3984828 C54.0770723,20.4763861 53.9644486,25.5659762 53.9795567,30.6497229 C53.9795567,30.7578256 53.9369795,30.8659282 53.9067633,31.0193171" id="Fill-1"></path>
                <path d="M14.9937073,28.1958122 C14.9937073,29.1721899 15.0172281,30.112244 14.9733226,31.0508452 C14.9639143,31.2324631 14.7208663,31.5230517 14.5358363,31.5637341 C12.084972,32.0838877 9.61999521,32.2771291 7.23342101,31.3530574 C4.85625512,30.4318915 3.78213993,28.5764833 3.58926961,26.3592922 C3.37287852,23.8878361 3.39483124,21.3960389 3.36347021,18.9129593 C3.32897308,16.344156 3.35562995,13.7753527 3.35562995,11.0975788 L-9.32587341e-14,11.0975788 L-9.32587341e-14,7.6264979 L3.35249385,7.6264979 L3.35249385,1.77635684e-15 L7.74303771,1.77635684e-15 C7.76028627,0.325459236 7.7885112,0.653824358 7.79007925,0.980736537 C7.7947834,2.92477429 7.81516807,4.86881205 7.77753484,6.81139686 C7.76655848,7.43906825 7.95472465,7.65991559 8.66818802,7.64538616 C10.6549091,7.60325081 12.6431983,7.63085673 14.6957775,7.63085673 L14.6957775,11.0118551 L7.94374829,11.0118551 C7.87945818,11.2544966 7.80105561,11.4128674 7.80105561,11.5712382 C7.81203197,16.0012614 7.77910289,20.4327376 7.87004987,24.861308 C7.92336362,27.5260055 9.21700601,28.5648597 12.1053566,28.4689655 C13.0336431,28.4370007 13.9556573,28.2975182 14.9937073,28.1958122" id="Fill-3"></path>
                <path d="M78.7963307,16.7057857 C78.8466257,13.4217333 75.6948078,9.70087849 71.6712105,9.65413041 C67.1656198,9.60153882 64.268071,13.5780472 64.2974097,16.7057857 L78.7963307,16.7057857 Z M64.0780678,20.2016654 C64.3518959,23.5105528 65.9278048,25.7515388 68.5235839,27.2693904 C71.136128,28.7960073 75.3343605,28.7740941 77.7680781,25.8143565 C77.9147717,25.6346686 78.157864,25.4330675 78.360441,25.4286848 C79.7267876,25.3936238 81.0945312,25.4111543 82.4608778,25.4111543 L82.6424985,25.6521991 C81.837779,26.6850394 81.1196787,27.8084542 80.2157664,28.7361113 C74.6246427,34.472977 62.9548135,32.828029 60.4805806,22.3623031 C59.3726943,17.668504 60.1159421,13.269802 63.3837178,9.67458269 C66.5844336,6.1538681 70.62759,5.27588077 75.0018549,6.55999202 C79.2322204,7.80027696 81.6575554,10.9776854 82.6089685,15.379309 C82.8744142,16.5991417 82.8506638,17.8876356 82.9847837,19.1410684 C83.074197,19.9664641 82.7738242,20.2235786 81.9705019,20.2191959 C76.3751869,20.1855958 70.779872,20.2016654 65.1831599,20.2016654 L64.0780678,20.2016654 Z" id="Fill-6"></path>
            </g>
        </g>
    </g>
</svg>